<?xml version="1.0" encoding="UTF-8"?>
<svg version="1.1" xmlns="http://www.w3.org/2000/svg" width="1026" height="1026">
<path d="M0 0 C338.58 0 677.16 0 1026 0 C1026 338.58 1026 677.16 1026 1026 C687.42 1026 348.84 1026 0 1026 C0 687.42 0 348.84 0 0 Z " fill="#202937" transform="translate(0,0)"/>
<path d="M0 0 C0.75204712 -0.00029205 1.50409424 -0.00058411 2.27893066 -0.00088501 C4.74084401 0.0004976 7.2024468 0.01600783 9.66430664 0.03173828 C11.38065933 0.03547222 13.09701416 0.03831739 14.81336975 0.04031372 C19.3129371 0.04792019 23.81237368 0.0675428 28.31188965 0.08972168 C32.91046378 0.11024468 37.50905921 0.1193292 42.10766602 0.12939453 C51.11748884 0.1507917 60.12721496 0.1848913 69.13696289 0.22705078 C69.13696289 0.88705078 69.13696289 1.54705078 69.13696289 2.22705078 C68.47696289 2.22705078 67.81696289 2.22705078 67.13696289 2.22705078 C66.89204102 3.06880859 66.64711914 3.91056641 66.39477539 4.77783203 C64.99723653 8.61021344 63.11811448 11.94499465 61.01196289 15.41455078 C60.10436064 16.93405207 59.19681232 18.45358557 58.28930664 19.97314453 C57.7877002 20.8082959 57.28609375 21.64344727 56.76928711 22.50390625 C53.68464297 27.64990098 50.63230575 32.81510219 47.57446289 37.97705078 C46.88740513 39.13568177 46.20031162 40.29429155 45.51318359 41.45288086 C38.03481107 54.06682326 30.62693231 66.72191727 23.21954346 79.37762451 C19.94355104 84.97416543 16.66557841 90.56954625 13.38696289 96.16455078 C12.85298889 97.07589279 12.85298889 97.07589279 12.30822754 98.00564575 C7.18599116 106.74676461 2.04273145 115.4752122 -3.12182617 124.19140625 C-6.47303082 129.85375048 -9.78781685 135.53615798 -13.08691406 141.22900391 C-40.37637848 188.25315868 -40.37637848 188.25315868 -57.30859375 205.30908203 C-60.31529373 208.19824129 -60.31529373 208.19824129 -60.86303711 212.22705078 C-59.16107904 213.57447255 -59.16107904 213.57447255 -56.92553711 214.78955078 C-47.19316533 220.95871395 -41.38459631 229.95602213 -36.21459961 240.02392578 C-35.62490387 241.14547058 -35.03520813 242.26701538 -34.42764282 243.42254639 C-32.55076998 247.01320696 -30.69975427 250.61575001 -28.86303711 254.22705078 C-28.56070663 254.82135895 -28.25837616 255.41566711 -27.94688416 256.02798462 C-23.31567868 265.14706406 -18.77100444 274.30885291 -14.23803711 283.47705078 C-6.19961753 299.7344689 1.95364958 315.88953208 10.76538086 331.7467804 C13.23014891 336.20388983 15.64856952 340.68620534 18.07446289 345.16455078 C34.5666661 375.44966792 51.51464522 405.71945508 69.84106445 434.94458008 C71.13696289 437.22705078 71.13696289 437.22705078 71.13696289 439.22705078 C61.4178361 439.32010777 51.69886484 439.39099565 41.97938824 439.43429947 C37.46526435 439.45509281 32.95144733 439.48325773 28.4375 439.52880859 C24.07378474 439.57256327 19.71036294 439.59624981 15.34644508 439.60655975 C13.68921101 439.61389837 12.03199133 439.62822774 10.37488365 439.64997101 C-3.43703699 439.82384134 -14.51794939 438.14406591 -24.86303711 428.22705078 C-29.71370013 423.10193182 -33.73159712 417.72808539 -37.42553711 411.72705078 C-38.18688965 410.50489868 -38.18688965 410.50489868 -38.96362305 409.25805664 C-45.48572572 398.71266905 -51.68509458 387.97635233 -57.86303711 377.22705078 C-58.19255371 376.65416321 -58.52207031 376.08127563 -58.86157227 375.49102783 C-66.04419981 363.00258198 -73.19229457 350.49751691 -80.14404297 337.87866211 C-84.06041576 330.80447493 -88.14634731 323.83032245 -92.25219727 316.86474609 C-98.60016651 306.06236178 -104.69385803 295.14175223 -110.86303711 284.22705078 C-111.19303711 335.37705078 -111.52303711 386.52705078 -111.86303711 439.22705078 C-156.34352992 439.22705078 -156.34352992 439.22705078 -167.86303711 428.22705078 C-181.52581207 413.51573728 -184.00737342 394.68653628 -184.02416992 375.52172852 C-184.02880647 374.14588795 -184.03383224 372.77004866 -184.03921509 371.39421082 C-184.05226291 367.67478819 -184.05876938 363.95538355 -184.06322575 360.23594165 C-184.0661696 357.90471393 -184.07027685 355.57349099 -184.07472992 353.2422657 C-184.08838648 345.92680558 -184.09806141 338.61135653 -184.10193181 331.29588455 C-184.10640436 322.89171857 -184.1239226 314.48771588 -184.15293241 306.08359951 C-184.17465482 299.56096144 -184.18464173 293.03836896 -184.18597293 286.51569515 C-184.18701368 282.63249949 -184.19276363 278.7494577 -184.21079254 274.86630058 C-184.22745658 271.20622779 -184.22934155 267.5464215 -184.22065353 263.88632393 C-184.21953468 261.92952636 -184.23311053 259.97273688 -184.24740601 258.01599121 C-184.13785719 234.33512195 -175.20259438 212.19624644 -159.86303711 194.22705078 C-159.22495117 193.46779297 -158.58686523 192.70853516 -157.92944336 191.92626953 C-154.27038773 187.68233561 -150.47177488 183.91549213 -146.19506836 180.30517578 C-143.12362386 177.56814316 -140.25287682 174.65356986 -137.36303711 171.72705078 C-133.97324857 168.2983709 -130.61106339 164.90441493 -126.92553711 161.78955078 C-116.93761759 153.26172966 -107.84321082 143.64282508 -99.86303711 133.22705078 C-98.67774414 131.74398437 -98.67774414 131.74398437 -97.46850586 130.23095703 C-88.38170678 118.59207644 -81.29505808 105.63548802 -73.95581055 92.86279297 C-70.89045466 87.5303473 -67.7804211 82.22403915 -64.67553711 76.91455078 C-63.54369195 74.97333967 -62.41218025 73.03193409 -61.28100586 71.09033203 C-58.91116242 67.02373273 -56.53845948 62.95881913 -54.16381836 58.89501953 C-52.93851566 56.79738798 -51.71325468 54.69973206 -50.48803711 52.60205078 C-49.89845215 51.59311768 -49.30886719 50.58418457 -48.70141602 49.54467773 C-45.93886359 44.81094951 -43.19493465 40.06896091 -40.50439453 35.29394531 C-26.24502553 10.00154009 -26.24502553 10.00154009 -18.48803711 4.47705078 C-17.96467773 4.09033203 -17.44131836 3.70361328 -16.90209961 3.30517578 C-11.5122308 0.45536009 -5.98804706 -0.06196731 0 0 Z " fill="#3A8B6F" transform="translate(532.863037109375,225.77294921875)"/>
<path d="M0 0 C2.61994845 2.53670238 4.94091292 5.0970176 7.109375 8.02734375 C7.69074219 8.80851563 8.27210938 9.5896875 8.87109375 10.39453125 C9.80115234 11.65330078 9.80115234 11.65330078 10.75 12.9375 C12.09821722 14.74924966 13.4472003 16.56042959 14.796875 18.37109375 C15.49103516 19.3029248 16.18519531 20.23475586 16.90039062 21.19482422 C20.2370322 25.65273255 23.61806269 30.0764144 27 34.5 C32.31026223 41.45020566 37.57798031 48.43009477 42.8125 55.4375 C48.28645775 62.75823875 53.86380945 69.98289669 59.53857422 77.1484375 C67.03010651 86.63988101 74.44081553 96.19241119 81.66796875 105.88671875 C88.52812818 115.04508904 95.49682243 124.12425961 102.5625 133.125 C103.00360107 133.68743408 103.44470215 134.24986816 103.89916992 134.8293457 C106.25941379 137.82716862 108.64755103 140.79852721 111.0703125 143.74609375 C130.13155999 166.99980259 138.71170119 190.81882164 135.79345703 221.14648438 C132.63729371 246.27646534 118.88065776 265.30562735 104 285 C102.97460465 286.36539319 101.94983196 287.73125428 100.92578125 289.09765625 C99.46669735 291.04439217 98.00703138 292.99065627 96.54418945 294.93457031 C92.6163712 300.15778134 88.74264793 305.41964054 84.875 310.6875 C80.15093558 317.11758335 75.35864463 323.48097344 70.47265625 329.7890625 C67.71754415 333.35398037 65.01297003 336.95609736 62.3125 340.5625 C61.82023926 341.21968018 61.32797852 341.87686035 60.82080078 342.55395508 C58.5892026 345.53521414 56.35971093 348.51803438 54.13232422 351.50244141 C40.86677725 369.27514991 40.86677725 369.27514991 34.8046875 376.7421875 C31.52414477 380.84641628 28.41048958 385.07652669 25.27441406 389.29150391 C23.90383112 391.12892525 22.52683632 392.96140403 21.1484375 394.79296875 C14.36280621 403.81176189 7.65390929 412.88362034 1 422 C-1.5138022 419.70001012 -3.12931764 417.31694089 -4.828125 414.37109375 C-5.64531006 412.9619873 -5.64531006 412.9619873 -6.47900391 411.52441406 C-7.35564697 409.9963916 -7.35564697 409.9963916 -8.25 408.4375 C-8.86407715 407.3762793 -9.4781543 406.31505859 -10.11083984 405.22167969 C-12.07911982 401.81743754 -14.04041483 398.40925367 -16 395 C-18.54081445 390.58284232 -21.0824818 386.16617722 -23.625 381.75 C-24.5679895 380.1103125 -24.5679895 380.1103125 -25.5300293 378.4375 C-29.30269057 371.89253771 -33.14540626 365.39686567 -37.0625 358.9375 C-42.18648478 350.47933859 -47.03833636 341.88224077 -51.83984375 333.23754883 C-55.50090105 326.65080529 -59.24673322 320.12307262 -63.0625 313.625 C-71.51010633 299.14640615 -75.28872475 287.55546386 -75.38574219 270.78173828 C-75.40157008 269.24327377 -75.41810953 267.70481644 -75.43530273 266.16636658 C-75.48745933 261.13441924 -75.51833607 256.10244107 -75.546875 251.0703125 C-75.55760731 249.32852032 -75.56836234 247.58672828 -75.57913971 245.84493637 C-75.62236162 238.59081709 -75.65982242 231.33670615 -75.68238449 224.08249092 C-75.71478779 213.73723447 -75.78099312 203.39348881 -75.89518619 193.04880154 C-75.97299556 185.74735866 -76.01169803 178.44631625 -76.02222562 171.1444701 C-76.02947942 166.79721339 -76.05293288 162.45157285 -76.11843109 158.10477066 C-76.60823671 123.96753516 -76.60823671 123.96753516 -66.17536354 110.54350853 C-64.50001854 108.34341535 -63.18400422 105.97098554 -61.84765625 103.5546875 C-60.92185498 101.99325659 -59.99344162 100.43337165 -59.0625 98.875 C-58.53366211 97.98506348 -58.00482422 97.09512695 -57.45996094 96.17822266 C-56.28756273 94.20549476 -55.11418392 92.2333494 -53.93994141 90.26171875 C-51.80212149 86.66729714 -49.67210959 83.06831596 -47.54296875 79.46875 C-39.19184519 65.3577937 -30.77520689 51.29081892 -22.24145508 37.28955078 C-14.71580135 24.92591315 -7.34940786 12.46900149 0 0 Z " fill="#419571" transform="translate(617,231)"/>
<path d="M0 0 C0.75204712 -0.00029205 1.50409424 -0.00058411 2.27893066 -0.00088501 C4.74084401 0.0004976 7.2024468 0.01600783 9.66430664 0.03173828 C11.38065933 0.03547222 13.09701416 0.03831739 14.81336975 0.04031372 C19.3129371 0.04792019 23.81237368 0.0675428 28.31188965 0.08972168 C32.91046378 0.11024468 37.50905921 0.1193292 42.10766602 0.12939453 C51.11748884 0.1507917 60.12721496 0.1848913 69.13696289 0.22705078 C69.13696289 0.88705078 69.13696289 1.54705078 69.13696289 2.22705078 C68.47696289 2.22705078 67.81696289 2.22705078 67.13696289 2.22705078 C66.89204102 3.06880859 66.64711914 3.91056641 66.39477539 4.77783203 C64.99723653 8.61021344 63.11811448 11.94499465 61.01196289 15.41455078 C60.10436064 16.93405207 59.19681232 18.45358557 58.28930664 19.97314453 C57.7877002 20.8082959 57.28609375 21.64344727 56.76928711 22.50390625 C53.68464297 27.64990098 50.63230575 32.81510219 47.57446289 37.97705078 C46.88740513 39.13568177 46.20031162 40.29429155 45.51318359 41.45288086 C38.03481107 54.06682326 30.62693231 66.72191727 23.21954346 79.37762451 C19.94355104 84.97416543 16.66557841 90.56954625 13.38696289 96.16455078 C12.85298889 97.07589279 12.85298889 97.07589279 12.30822754 98.00564575 C7.18599116 106.74676461 2.04273145 115.4752122 -3.12182617 124.19140625 C-6.47303082 129.85375048 -9.78781685 135.53615798 -13.08691406 141.22900391 C-27.54565428 166.14374856 -42.08185377 189.82542295 -62.25952148 210.55859375 C-64.98794601 213.39751781 -67.57232434 216.35911658 -70.15209961 219.33251953 C-72.30677187 221.71840092 -74.58402572 223.95904151 -76.86303711 226.22705078 C-77.38956879 226.75107986 -77.91610046 227.27510895 -78.45858765 227.8150177 C-79.63103035 228.98176853 -80.80364725 230.14834433 -81.97640991 231.31477356 C-84.68624774 234.01112476 -87.39334533 236.71022042 -90.1003418 239.40942383 C-91.52099005 240.82504238 -92.94253441 242.23976222 -94.36499023 243.65356445 C-96.43707325 245.71340509 -98.5058094 247.77655866 -100.57397461 249.84033203 C-101.2002475 250.46144363 -101.82652039 251.08255524 -102.47177124 251.7224884 C-106.25350842 255.50375265 -109.83247771 259.40879758 -113.32852173 263.45549011 C-115.03404588 265.42447625 -116.79014835 267.33622825 -118.58178711 269.22705078 C-119.2044043 269.88705078 -119.82702148 270.54705078 -120.46850586 271.22705078 C-121.73152669 272.56038411 -122.99454753 273.89371745 -124.25756836 275.22705078 C-127.99787407 279.19192971 -131.63810813 283.22274282 -135.21118164 287.33886719 C-138.05598015 290.59066614 -141.00169647 293.74840664 -143.94311523 296.91259766 C-146.04073297 299.18377007 -148.05258913 301.46804257 -149.96459961 303.89892578 C-151.7104988 306.03998735 -153.39002389 307.5910341 -155.55053711 309.28955078 C-174.5499586 325.82151494 -179.38501569 350.31294112 -181.86303711 374.22705078 C-182.19303711 374.22705078 -182.52303711 374.22705078 -182.86303711 374.22705078 C-182.98029857 357.03201295 -183.06823336 339.83710148 -183.12209797 322.64175415 C-183.14778289 314.65605227 -183.18274521 306.6706001 -183.24023438 298.68505859 C-183.29036945 291.71766476 -183.32239853 284.75045192 -183.33347958 277.78288269 C-183.33994801 274.100022 -183.35494194 270.41767872 -183.39168739 266.73498535 C-183.67356362 237.35156577 -183.67356362 237.35156577 -177.86303711 224.22705078 C-177.50010559 223.36268906 -177.13717407 222.49832733 -176.76324463 221.60777283 C-175.916308 219.65602732 -174.98942372 217.79095794 -173.98803711 215.91455078 C-173.64490479 215.25487305 -173.30177246 214.59519531 -172.94824219 213.91552734 C-165.9754933 200.7006153 -157.5665503 189.81106286 -146.08959961 180.19970703 C-143.0477486 177.50473377 -140.21773733 174.61784538 -137.36303711 171.72705078 C-133.97324055 168.2983793 -130.61106417 164.90441559 -126.92553711 161.78955078 C-116.93761759 153.26172966 -107.84321082 143.64282508 -99.86303711 133.22705078 C-98.67774414 131.74398437 -98.67774414 131.74398437 -97.46850586 130.23095703 C-88.38170678 118.59207644 -81.29505808 105.63548802 -73.95581055 92.86279297 C-70.89045466 87.5303473 -67.7804211 82.22403915 -64.67553711 76.91455078 C-63.54369195 74.97333967 -62.41218025 73.03193409 -61.28100586 71.09033203 C-58.91116242 67.02373273 -56.53845948 62.95881913 -54.16381836 58.89501953 C-52.93851566 56.79738798 -51.71325468 54.69973206 -50.48803711 52.60205078 C-49.89845215 51.59311768 -49.30886719 50.58418457 -48.70141602 49.54467773 C-45.93886359 44.81094951 -43.19493465 40.06896091 -40.50439453 35.29394531 C-26.24502553 10.00154009 -26.24502553 10.00154009 -18.48803711 4.47705078 C-17.96467773 4.09033203 -17.44131836 3.70361328 -16.90209961 3.30517578 C-11.5122308 0.45536009 -5.98804706 -0.06196731 0 0 Z " fill="#6EDF95" transform="translate(532.863037109375,225.77294921875)"/>
<path d="M0 0 C2.61994845 2.53670238 4.94091292 5.0970176 7.109375 8.02734375 C7.69074219 8.80851563 8.27210938 9.5896875 8.87109375 10.39453125 C9.80115234 11.65330078 9.80115234 11.65330078 10.75 12.9375 C12.09821722 14.74924966 13.4472003 16.56042959 14.796875 18.37109375 C15.49103516 19.3029248 16.18519531 20.23475586 16.90039062 21.19482422 C20.2370322 25.65273255 23.61806269 30.0764144 27 34.5 C32.31026223 41.45020566 37.57798031 48.43009477 42.8125 55.4375 C48.28645775 62.75823875 53.86380945 69.98289669 59.53857422 77.1484375 C67.03010651 86.63988101 74.44081553 96.19241119 81.66796875 105.88671875 C88.52812818 115.04508904 95.49682243 124.12425961 102.5625 133.125 C103.00360107 133.68743408 103.44470215 134.24986816 103.89916992 134.8293457 C106.25941379 137.82716862 108.64755103 140.79852721 111.0703125 143.74609375 C130.13155999 166.99980259 138.71170119 190.81882164 135.79345703 221.14648438 C133.74592152 237.44935693 127.43161533 252.59812374 118 266 C117.01 266.66 116.02 267.32 115 268 C115.3196875 266.90945313 115.639375 265.81890625 115.96875 264.6953125 C119.03943555 252.3091252 118.81302802 237.48612193 112.98828125 226.03125 C107.36569009 217.45928391 101.29123795 210.76740743 91.1875 207.9375 C89.98480469 207.59589844 88.78210938 207.25429688 87.54296875 206.90234375 C80.50823725 205.11069769 73.97670191 204.84709768 66.75 204.875 C65.76386719 204.87113281 64.77773438 204.86726562 63.76171875 204.86328125 C57.44904905 204.87159834 51.26699669 205.24292473 45 206 C44.59460495 205.10695663 44.1892099 204.21391327 43.77153015 203.29380798 C42.01273463 200.02367751 40.27400237 197.9051375 37.65551758 195.29907227 C36.78063187 194.42118546 35.90574615 193.54329865 35.00434875 192.6388092 C34.05130378 191.69777774 33.09802533 190.75698266 32.14453125 189.81640625 C31.15848772 188.8334266 30.17303937 187.84984958 29.18815613 186.8657074 C27.12565315 184.80779462 25.05835929 182.75486955 22.98706055 180.70581055 C20.35236482 178.09928363 17.72631408 175.48426686 15.10342884 172.86586094 C12.57859445 170.34622522 10.04912351 167.83126356 7.51953125 165.31640625 C6.58591263 164.38703751 5.65229401 163.45766876 4.69038391 162.50013733 C0.14295307 158.00176034 -4.44786277 153.6149564 -9.30854797 149.45542908 C-10.43868158 148.4829928 -11.54929568 147.48741436 -12.639328 146.4702301 C-14.94802954 144.37096164 -16.60192099 143.08331886 -19.6875 142.4375 C-22.10436067 142.80611983 -22.10436067 142.80611983 -23.62147522 144.6884613 C-25.31229964 147.52367046 -25.37213357 149.25906617 -25.36889648 152.54711914 C-25.37577988 153.65829605 -25.38266327 154.76947296 -25.38975525 155.9143219 C-25.38359695 157.10919724 -25.37743866 158.30407257 -25.37109375 159.53515625 C-25.3884699 162.06054827 -25.40605434 164.58593887 -25.42382812 167.11132812 C-25.4339241 171.0967772 -25.43749384 175.08217025 -25.43579102 179.06762695 C-25.43934751 182.91124646 -25.46663631 186.75416139 -25.49609375 190.59765625 C-25.48791122 191.79455582 -25.4797287 192.99145538 -25.47129822 194.22462463 C-25.48133377 195.33264938 -25.49136932 196.44067413 -25.50170898 197.58227539 C-25.50154282 198.55838272 -25.50137665 199.53449005 -25.50120544 200.54017639 C-26 203 -26 203 -27.88417053 204.78416443 C-30 206 -30 206 -32.3515625 206.87109375 C-35.84887091 208.36183435 -38.51979257 210.60885182 -41.375 213.0625 C-41.94935791 213.55492187 -42.52371582 214.04734375 -43.11547852 214.5546875 C-60.44439391 229.74662352 -70.47404779 255.70910498 -72.625 278.4375 C-72.74875 279.613125 -72.8725 280.78875 -73 282 C-73.66 282.33 -74.32 282.66 -75 283 C-75.23447522 262.97126882 -75.41036772 242.94281935 -75.51812172 222.91299629 C-75.56950276 213.61096205 -75.63944492 204.30978468 -75.75439453 195.00830078 C-75.85463522 186.89310548 -75.91871489 178.7785312 -75.94088495 170.66273391 C-75.95382825 166.37227454 -75.98384452 162.08359039 -76.05730057 157.79370499 C-76.61345197 124.02285484 -76.61345197 124.02285484 -66.17649651 110.54955101 C-64.50337972 108.34590672 -63.18517965 105.97214555 -61.84765625 103.5546875 C-60.92185498 101.99325659 -59.99344162 100.43337165 -59.0625 98.875 C-58.53366211 97.98506348 -58.00482422 97.09512695 -57.45996094 96.17822266 C-56.28756273 94.20549476 -55.11418392 92.2333494 -53.93994141 90.26171875 C-51.80212149 86.66729714 -49.67210959 83.06831596 -47.54296875 79.46875 C-39.19184519 65.3577937 -30.77520689 51.29081892 -22.24145508 37.28955078 C-14.71580135 24.92591315 -7.34940786 12.46900149 0 0 Z " fill="#6EDE93" transform="translate(617,231)"/>
<path d="M0 0 C1.67967541 0.01508399 3.35936403 0.02876578 5.0390625 0.04101562 C9.10970756 0.07370446 13.17970367 0.12527769 17.25 0.1875 C17.32032205 14.32243299 17.3729012 28.45733855 17.40543652 42.59241104 C17.42105609 49.1567214 17.44222664 55.72091378 17.47631836 62.28515625 C17.50904396 68.62643332 17.52688087 74.96759729 17.53463173 81.30895233 C17.54015157 83.72171558 17.55093019 86.13447303 17.56719017 88.54718781 C17.5891397 91.94077166 17.59195959 95.33389504 17.59057617 98.72753906 C17.601362 99.71297699 17.61214783 100.69841492 17.6232605 101.7137146 C17.53087409 122.81774865 7.99243069 136.75319399 -6.40820312 151.0871582 C-10.65884767 155.24011923 -15.10595775 159.01935215 -19.7578125 162.71875 C-34.11917763 174.56781366 -46.71557125 187.08421376 -52.75 205.1875 C-53.41 205.1875 -54.07 205.1875 -54.75 205.1875 C-54.84375 184.61973789 -54.91412869 164.05201139 -54.95724869 143.48407841 C-54.97780884 133.93242785 -55.00580308 124.38091063 -55.05175781 114.8293457 C-55.0918273 106.49698856 -55.11748029 98.16472806 -55.12635398 89.83227724 C-55.13153495 85.42681586 -55.14357276 81.02163078 -55.17292023 76.61625862 C-55.20040858 72.45559176 -55.20837886 68.29531059 -55.20243073 64.13456154 C-55.20351624 62.62103924 -55.2112688 61.10750176 -55.2268219 59.59405899 C-55.4066068 41.16969053 -52.02068409 24.0747073 -38.9296875 10.3828125 C-38.21039063 9.65835938 -37.49109375 8.93390625 -36.75 8.1875 C-36.25757813 7.64867187 -35.76515625 7.10984375 -35.2578125 6.5546875 C-26.58605038 -2.01445021 -11.19786072 -0.17642289 0 0 Z " fill="#76E297" transform="translate(403.75,225.8125)"/>
<path d="M0 0 C3.30197524 0.71737829 4.67220371 2.01990832 7.09765625 4.36328125 C10.5487374 7.68131027 14.05114026 10.92309742 17.61328125 14.12109375 C26.03103499 21.77509783 34.0148264 29.88079275 42.0480957 37.93334961 C44.75161232 40.64229547 47.4605229 43.34576692 50.16992188 46.04882812 C51.88964424 47.76921011 53.609057 49.48990165 55.328125 51.2109375 C56.13839645 52.01918472 56.94866791 52.82743195 57.78349304 53.66017151 C58.52549454 54.40532516 59.26749603 55.15047882 60.03198242 55.91821289 C60.68639816 56.57342422 61.3408139 57.22863556 62.01506042 57.90370178 C64.9190029 61.05022975 65.06061281 63.9547467 65.00830078 68.10400391 C64.1066893 72.76651692 60.78408864 75.5392066 57.47265625 78.73828125 C56.81587891 79.41052734 56.15910156 80.08277344 55.48242188 80.77539062 C51.9080442 84.39202696 48.20007815 87.79208415 44.27563477 91.0246582 C41.91583642 93.09382632 39.74008404 95.31721287 37.53515625 97.55078125 C36.49041208 98.60629652 35.44556578 99.66171071 34.40063477 100.71704102 C33.55934776 101.56801109 33.55934776 101.56801109 32.70106506 102.43617249 C30.17022733 104.99393655 27.6339274 107.54625636 25.09741211 110.09838867 C23.76423362 111.44165837 22.43285105 112.78671288 21.10327148 114.13354492 C19.16996292 116.09121389 17.23017628 118.04226123 15.2890625 119.9921875 C14.70137589 120.59019669 14.11368927 121.18820587 13.50819397 121.80433655 C4.80865777 130.50620279 4.80865777 130.50620279 -0.65234375 130.61328125 C-3.46484375 129.55078125 -3.46484375 129.55078125 -5.1153717 127.69763184 C-7.17115925 122.90371537 -6.89028357 118.30250407 -6.86889648 113.13867188 C-6.87575974 111.98529831 -6.88262299 110.83192474 -6.88969421 109.64360046 C-6.90799502 105.8312855 -6.90412018 102.01938072 -6.8984375 98.20703125 C-6.90184493 96.22760974 -6.90525988 94.24818804 -6.90979058 92.26876879 C-6.92382632 86.04778627 -6.92228205 79.82694112 -6.91088867 73.60595703 C-6.89940348 67.19322218 -6.91349156 60.78090535 -6.94028515 54.36822557 C-6.96245048 48.85638504 -6.96907784 43.34467565 -6.96320873 37.83279371 C-6.95984044 34.54338471 -6.96395522 31.254303 -6.97945976 27.96492004 C-6.99431243 24.29725902 -6.98373378 20.63052242 -6.96655273 16.96289062 C-6.9762207 15.87598434 -6.98588867 14.78907806 -6.99584961 13.66923523 C-6.9237201 6.3277951 -6.9237201 6.3277951 -4.58753967 2.37194824 C-2.46484375 0.55078125 -2.46484375 0.55078125 0 0 Z " fill="#1D2632" transform="translate(597.46484375,372.44921875)"/>
<path d="M0 0 C0.66 0 1.32 0 2 0 C4.15198742 2.51729263 5.87708736 5.3558657 7.6875 8.125 C8.21150391 8.88554688 8.73550781 9.64609375 9.27539062 10.4296875 C11.48046118 13.79089885 12.95763297 16.05851038 13.140625 20.125 C11.64832466 23.88641455 9.59033297 26.74091255 7.0625 29.875 C6.60681641 30.46796875 6.15113281 31.0609375 5.68164062 31.671875 C4.51039001 33.16037505 3.26055608 34.58633145 2 36 C1.34 36 0.68 36 0 36 C-2.15898002 33.2889674 -3.87797773 30.26463885 -5.6875 27.3125 C-6.21150391 26.49587891 -6.73550781 25.67925781 -7.27539062 24.83789062 C-7.76587891 24.04189453 -8.25636719 23.24589844 -8.76171875 22.42578125 C-9.21506592 21.69786377 -9.66841309 20.96994629 -10.13549805 20.2199707 C-11.24628964 17.36754823 -10.92468487 15.88891509 -10 13 C-9.00024414 11.23901367 -9.00024414 11.23901367 -7.78515625 9.66796875 C-7.34623047 9.09755859 -6.90730469 8.52714844 -6.45507812 7.93945312 C-5.99552734 7.36130859 -5.53597656 6.78316406 -5.0625 6.1875 C-4.60681641 5.59001953 -4.15113281 4.99253906 -3.68164062 4.37695312 C-2.50855732 2.87410116 -1.25943053 1.4312663 0 0 Z " fill="#1E2832" transform="translate(672,516)"/>
<path d="M0 0 C0.66 0 1.32 0 2 0 C4.30996899 2.72984895 6.2059013 5.77646179 8.1875 8.75 C8.75919922 9.575 9.33089844 10.4 9.91992188 11.25 C10.72333008 12.44882812 10.72333008 12.44882812 11.54296875 13.671875 C12.03821045 14.4050293 12.53345215 15.13818359 13.04370117 15.89355469 C14 18 14 18 13.81005859 20.04101562 C12.92558482 22.17996003 11.88467362 23.82043517 10.49609375 25.671875 C10.00302734 26.33574219 9.50996094 26.99960937 9.00195312 27.68359375 C8.48568359 28.36550781 7.96941406 29.04742188 7.4375 29.75 C6.91736328 30.44738281 6.39722656 31.14476562 5.86132812 31.86328125 C4.57985819 33.57974556 3.29067202 35.29044431 2 37 C-1.06254377 33.31806536 -3.67155839 29.51115405 -6.1875 25.4375 C-6.88230469 24.32246094 -7.57710937 23.20742188 -8.29296875 22.05859375 C-10.64677182 17.84113883 -10.64677182 17.84113883 -11 15 C-10.13549805 13.16894531 -10.13549805 13.16894531 -8.76171875 11.328125 C-8.27123047 10.66425781 -7.78074219 10.00039063 -7.27539062 9.31640625 C-6.75138672 8.63449219 -6.22738281 7.95257812 -5.6875 7.25 C-5.17509766 6.55261719 -4.66269531 5.85523438 -4.13476562 5.13671875 C-1.31265049 1.37635152 -1.31265049 1.37635152 0 0 Z " fill="#1C2631" transform="translate(645,550)"/>
<path d="M0 0 C3.58764553 3.42399854 6.56908331 6.91108051 9.375 11 C10.08398438 12.010625 10.79296875 13.02125 11.5234375 14.0625 C13 17 13 17 13.04296875 19.41796875 C11.54399631 23.12890802 9.32662186 26.12152707 6.9375 29.3125 C6.46505859 29.95767578 5.99261719 30.60285156 5.50585938 31.26757812 C4.34490296 32.85070051 3.17347664 34.42613569 2 36 C-2.15085552 34.61638149 -3.09723477 31.77842442 -5.0625 28.125 C-7.88771564 22.97792066 -7.88771564 22.97792066 -11 18 C-10.80930711 13.32802416 -8.29681397 10.28281764 -5.5 6.75 C-5.08363281 6.20859375 -4.66726563 5.6671875 -4.23828125 5.109375 C-1.28039148 1.28039148 -1.28039148 1.28039148 0 0 Z " fill="#1F2934" transform="translate(698,481)"/>
<path d="M0 0 C4.13858871 1.53211862 5.8750575 4.16736057 8.3125 7.75 C9.03050781 8.77609375 9.74851562 9.8021875 10.48828125 10.859375 C12.33631873 14.69870868 12.33335241 15.97989235 11 20 C9.52174094 22.90682268 7.82852691 25.63555292 6.0625 28.375 C5.60681641 29.11105469 5.15113281 29.84710938 4.68164062 30.60546875 C2.15036656 34.60065681 2.15036656 34.60065681 1 36 C0.34 36 -0.32 36 -1 36 C-3.15290264 33.82472308 -4.91439123 31.31942664 -6.75 28.875 C-7.28238281 28.20984375 -7.81476562 27.5446875 -8.36328125 26.859375 C-12.10306685 21.87950383 -12.10306685 21.87950383 -11.6484375 18 C-9.57603208 14.22841858 -7.32262838 10.66274859 -4.875 7.125 C-4.40707031 6.43664062 -3.93914063 5.74828125 -3.45703125 5.0390625 C-2.31098303 3.35507328 -1.15635521 1.6769284 0 0 Z " fill="#233039" transform="translate(672,330)"/>
<path d="M0 0 C0.66 0 1.32 0 2 0 C3.78031091 2.21576134 5.43336169 4.42726816 7.0625 6.75 C7.52205078 7.38421875 7.98160156 8.0184375 8.45507812 8.671875 C12.47034313 14.33216047 12.47034313 14.33216047 13 18 C10.03919678 24.60203948 5.88230243 30.67385189 1 36 C-2.36588055 32.94010859 -5.15557867 29.65132724 -7.875 26 C-8.49117187 25.175 -9.10734375 24.35 -9.7421875 23.5 C-11 21 -11 21 -11.00390625 18.70703125 C-9.52230443 14.71189482 -7.34600604 11.27129139 -5.0625 7.6875 C-4.60681641 6.94693359 -4.15113281 6.20636719 -3.68164062 5.44335938 C-1.13160599 1.39242588 -1.13160599 1.39242588 0 0 Z " fill="#232F38" transform="translate(697,364)"/>
<path d="M0 0 C3.26055085 3.15901121 6.20185026 6.32872139 8.875 10 C9.49117187 10.825 10.10734375 11.65 10.7421875 12.5 C12 15 12 15 12.01171875 17.26171875 C10.48035582 21.40645008 8.23144197 25.04816331 5.9375 28.8125 C5.46505859 29.60076172 4.99261719 30.38902344 4.50585938 31.20117188 C3.34368685 33.13812608 2.17495583 35.07078295 1 37 C-2.57150242 35.80949919 -2.97798926 34.9154918 -4.9375 31.8125 C-6.69990285 29.02534161 -8.48913175 26.36072047 -10.5 23.75 C-12 21 -12 21 -11.4140625 18.84765625 C-9.48407527 14.96102451 -7.20755908 11.34314931 -4.875 7.6875 C-4.40707031 6.94693359 -3.93914063 6.20636719 -3.45703125 5.44335938 C-2.30835804 3.62658032 -1.15467631 1.81296963 0 0 Z " fill="#222E37" transform="translate(646,295)"/>
<path d="M0 0 C4.50224866 1.50074955 5.8127847 4.83943985 8.25 8.75 C8.72179687 9.46671875 9.19359375 10.1834375 9.6796875 10.921875 C12.96205426 16.14294961 12.96205426 16.14294961 13.11328125 19.55859375 C11.48055969 23.1391235 9.28995067 26.17050605 6.9375 29.3125 C6.46505859 29.95767578 5.99261719 30.60285156 5.50585938 31.26757812 C4.34490296 32.85070051 3.17347664 34.42613569 2 36 C-1.59145004 32.6975172 -4.1737943 29.06216207 -6.8125 25 C-7.44188477 24.07574219 -7.44188477 24.07574219 -8.08398438 23.1328125 C-11.06877234 18.54990906 -11.06877234 18.54990906 -10.75097656 16.00878906 C-9.96392689 13.90350794 -9.03989045 12.35833125 -7.71484375 10.546875 C-7.26689453 9.928125 -6.81894531 9.309375 -6.35742188 8.671875 C-5.88884766 8.03765625 -5.42027344 7.4034375 -4.9375 6.75 C-4.46505859 6.1003125 -3.99261719 5.450625 -3.50585938 4.78125 C-2.34276471 3.18346338 -1.17211399 1.59118197 0 0 Z " fill="#1C2630" transform="translate(619,585)"/>
<path d="M0 0 C3.50697095 3.24957859 6.09368873 6.81312173 8.75 10.75 C9.16121094 11.35199219 9.57242188 11.95398438 9.99609375 12.57421875 C11.00123432 14.04686657 12.00115478 15.52307502 13 17 C9.6973842 24.15566756 5.45559305 30.51127226 1 37 C-2.26089436 33.84611254 -5.1680237 30.68728722 -7.8125 27 C-8.41707031 26.175 -9.02164063 25.35 -9.64453125 24.5 C-11.20763795 21.61703663 -11.29172617 20.23443441 -11 17 C-9.99023438 14.87182617 -9.99023438 14.87182617 -8.59375 12.79296875 C-8.09746094 12.04208984 -7.60117187 11.29121094 -7.08984375 10.51757812 C-6.56519531 9.74865234 -6.04054688 8.97972656 -5.5 8.1875 C-4.97535156 7.39923828 -4.45070313 6.61097656 -3.91015625 5.79882812 C-2.61681547 3.85881695 -1.31333833 1.92650475 0 0 Z " fill="#233039" transform="translate(619,260)"/>
<path d="M0 0 C0.75204712 -0.00029205 1.50409424 -0.00058411 2.27893066 -0.00088501 C4.74084401 0.0004976 7.2024468 0.01600783 9.66430664 0.03173828 C11.38065933 0.03547222 13.09701416 0.03831739 14.81336975 0.04031372 C19.3129371 0.04792019 23.81237368 0.0675428 28.31188965 0.08972168 C32.91046378 0.11024468 37.50905921 0.1193292 42.10766602 0.12939453 C51.11748884 0.1507917 60.12721496 0.1848913 69.13696289 0.22705078 C69.13696289 0.88705078 69.13696289 1.54705078 69.13696289 2.22705078 C65.43038075 3.40621661 61.94691002 3.32731274 58.0769043 3.29296875 C57.3739473 3.2882959 56.6709903 3.28362305 55.94673157 3.27880859 C54.42384916 3.26832664 52.9009805 3.25567078 51.37813187 3.24108505 C48.96500665 3.21902326 46.55196044 3.20496928 44.13876343 3.19338989 C37.27867849 3.15983409 30.41872431 3.11821867 23.55883789 3.05566406 C19.35914822 3.01794047 15.15959272 2.99497025 10.95975876 2.98135757 C9.36259596 2.97332161 7.7654508 2.95973861 6.16838455 2.94042587 C3.93069299 2.91383955 1.6936409 2.90604425 -0.54418945 2.90234375 C-1.81563812 2.89266571 -3.08708679 2.88298767 -4.39706421 2.87301636 C-15.64138652 4.02157617 -24.09853103 15.00660796 -30.86303711 23.22705078 C-31.19303711 22.56705078 -31.52303711 21.90705078 -31.86303711 21.22705078 C-28.12699741 13.21547107 -22.46681672 6.74179492 -14.86303711 2.22705078 C-9.83696577 0.51101053 -5.26962356 -0.0545327 0 0 Z " fill="#B0E4A6" transform="translate(532.863037109375,225.77294921875)"/>
<path d="M0 0 C4.19685111 3.83326253 7.38751287 8.38660786 10.75 12.9375 C12.09821722 14.74924966 13.4472003 16.56042959 14.796875 18.37109375 C15.83811523 19.76884033 15.83811523 19.76884033 16.90039062 21.19482422 C20.23703557 25.65273705 23.61841518 30.0761402 27 34.5 C32.47418594 41.67553117 37.93964505 48.8574946 43.375 56.0625 C44.01179687 56.90167969 44.64859375 57.74085938 45.3046875 58.60546875 C46.18640625 59.77722656 46.18640625 59.77722656 47.0859375 60.97265625 C47.6020459 61.65593994 48.1181543 62.33922363 48.64990234 63.04321289 C49.97514274 64.9639727 51.01236881 66.88882778 52 69 C47.13984918 65.47639066 44.0293879 61.49358513 40.5859375 56.60546875 C37.26226041 51.91666139 33.74327126 47.37539889 30.25 42.8125 C23.44861311 33.91288882 16.7045238 24.9727209 10 16 C9.39800781 15.23816406 8.79601562 14.47632813 8.17578125 13.69140625 C7 12 7 12 7 10 C6.01 10 5.02 10 4 10 C3.67 8.35 3.34 6.7 3 5 C0.27315131 7.57535709 -1.99051217 9.9856245 -4.0625 13.125 C-5.86419333 15.79848043 -7.31991472 17.27708803 -10 19 C-8.40376856 14.60616294 -6.21975667 10.71004193 -3.875 6.6875 C-3.50246094 6.04232422 -3.12992188 5.39714844 -2.74609375 4.73242188 C-1.83367787 3.15324055 -0.91724491 1.57638136 0 0 Z " fill="#A0E7A0" transform="translate(617,231)"/>
<path d="M0 0 C0.33 0 0.66 0 1 0 C2.12480645 7.03650471 2.02504437 13.86547861 1.84375 20.9765625 C1.81776733 22.2194101 1.79178467 23.46225769 1.76501465 24.74276733 C1.65446637 30.02973467 1.53068 35.31636155 1.40673828 40.60302734 C1.31790859 44.47744251 1.23687889 48.35196927 1.15625 52.2265625 C1.12607788 53.39788727 1.09590576 54.56921204 1.06481934 55.77603149 C0.91851031 62.89153989 1.18327419 69.87165663 1.79101562 76.96357727 C2.06299437 80.91527196 1.85027755 84.61789712 1.5 88.5625 C0.9980219 93.53302534 0.9980219 93.53302534 1.52734375 98.4453125 C2.21673413 102.171439 1.59841167 105.58774749 1.0625 109.3125 C0.91264648 110.42334961 0.91264648 110.42334961 0.75976562 111.55664062 C0.51380065 113.37209637 0.25789626 115.18620071 0 117 C-0.33 117 -0.66 117 -1 117 C-1.11882789 87.36797927 -1.0012423 57.75248413 -0.5 28.125 C-0.48804218 27.4178825 -0.47608437 26.710765 -0.46376419 25.9822197 C-0.31662635 17.32134365 -0.16209731 8.6606092 0 0 Z " fill="#58DF99" transform="translate(351,483)"/>
<path d="M0 0 C0.33 0 0.66 0 1 0 C1.02549801 6.93765472 1.04292871 13.8752972 1.05493164 20.81298828 C1.05993918 23.16976371 1.06674714 25.52653606 1.07543945 27.88330078 C1.08766251 31.28418744 1.09326425 34.68503277 1.09765625 38.0859375 C1.10281754 39.12801361 1.10797882 40.17008972 1.11329651 41.2437439 C1.11377327 47.55760603 0.76310357 53.73174579 0 60 C0.66 60 1.32 60 2 60 C2.33 58.35 2.66 56.7 3 55 C3.66 55 4.32 55 5 55 C5 54.34 5 53.68 5 53 C5.66 53.33 6.32 53.66 7 54 C3.535 60.435 3.535 60.435 0 67 C-0.33 67 -0.66 67 -1 67 C-1.02561678 59.86906716 -1.04297736 52.73814644 -1.05493164 45.60717773 C-1.05992184 43.18757687 -1.06671635 40.76797896 -1.07543945 38.34838867 C-1.16597155 12.56804283 -1.16597155 12.56804283 0 0 Z " fill="#68E59A" transform="translate(351,362)"/>
<path d="M0 0 C-2.40118524 2.50123463 -4.9113681 4.77348471 -7.5625 7 C-13.19228753 11.86354045 -18.05219573 17.46100588 -23 23 C-24 20 -24 20 -23.35546875 18.08984375 C-19.38221365 10.76789204 -13.32773679 1.89096244 -5 -0.6875 C-2 -1 -2 -1 0 0 Z " fill="#9FF3A5" transform="translate(379,230)"/>
<path d="M0 0 C0 0.66 0 1.32 0 2 C-0.88816406 2.40863281 -1.77632812 2.81726563 -2.69140625 3.23828125 C-10.83828122 7.57622766 -17.19149546 14.94132064 -23 22 C-23.33 21.34 -23.66 20.68 -24 20 C-20.22546208 11.90586454 -14.54185043 5.72471032 -7 1 C-4.44715464 0.14118696 -2.73102102 0 0 0 Z " fill="#9FE69C" transform="translate(525,227)"/>
<path d="M0 0 C0 4.27053927 -2.30125972 5.82898018 -5 9 C-5 9.66 -5 10.32 -5 11 C-7.49962031 13.51822791 -10.27829307 15.7259757 -13 18 C-13.86625 18.763125 -14.7325 19.52625 -15.625 20.3125 C-18.31430657 22.22332309 -20.83609579 23.11704999 -24 24 C-16 16 -8 8 0 0 Z " fill="#5DCC8A" transform="translate(402,391)"/>
<path d="M0 0 C5.47799064 9.3908411 5.08292416 21.23805329 5.125 31.75 C5.13200928 32.97456909 5.13200928 32.97456909 5.13916016 34.22387695 C5.12752898 38.59496187 4.87458383 42.69649225 4 47 C3.67 47 3.34 47 3 47 C3.02094727 46.41323486 3.04189453 45.82646973 3.06347656 45.22192383 C3.43893416 32.98271912 3.02381867 21.54460037 0.33496094 9.56567383 C0.15094727 8.74478271 -0.03306641 7.9238916 -0.22265625 7.078125 C-0.39547119 6.36043945 -0.56828613 5.64275391 -0.74633789 4.90332031 C-1 3 -1 3 0 0 Z " fill="#54D08B" transform="translate(748,409)"/>
<path d="M0 0 C1.24974464 3.74923391 0.24434737 5.13094458 -1.453125 8.54882812 C-1.81921875 9.25458984 -2.1853125 9.96035156 -2.5625 10.6875 C-2.92730469 11.40486328 -3.29210937 12.12222656 -3.66796875 12.86132812 C-6.3336757 17.99234796 -9.28991516 22.54789819 -13 27 C-13.33 26.34 -13.66 25.68 -14 25 C-13.70351563 24.12085938 -13.40703125 23.24171875 -13.1015625 22.3359375 C-11.89292169 18.67572738 -11.59244175 15.466471 -11.375 11.625 C-11.30023437 10.37976563 -11.22546875 9.13453125 -11.1484375 7.8515625 C-11.09945312 6.91054688 -11.05046875 5.96953125 -11 5 C-10.67 5 -10.34 5 -10 5 C-10 8.96 -10 12.92 -10 17 C-9.34 17 -8.68 17 -8 17 C-7.690625 15.8553125 -7.690625 15.8553125 -7.375 14.6875 C-5.44105609 9.50101406 -2.7214854 4.80966916 0 0 Z " fill="#42C085" transform="translate(746,472)"/>
<path d="M0 0 C0.66 0 1.32 0 2 0 C1.57630928 1.6286551 1.1355377 3.25287378 0.6875 4.875 C0.44386719 5.77992188 0.20023438 6.68484375 -0.05078125 7.6171875 C-1 10 -1 10 -4 12 C-4.72125381 13.93427159 -5.43767905 15.8708446 -6.10546875 17.82421875 C-7.53870154 21.31029151 -9.70590776 24.02388034 -12 27 C-13 25 -13 25 -11.8515625 21.3671875 C-10.11900359 17.00523884 -7.85713777 13.09642043 -5.375 9.125 C-2.55275412 4.63848516 -2.55275412 4.63848516 0 0 Z " fill="#9AEB9D" transform="translate(603,254)"/>
<path d="M0 0 C0.66 1.32 1.32 2.64 2 4 C1.54109375 4.44730469 1.0821875 4.89460938 0.609375 5.35546875 C-3.5949766 9.49799165 -7.60116231 13.49374914 -10.5 18.6875 C-12.15870181 21.24466529 -13.28827121 21.78305614 -16 23 C-12.62607344 16.42317541 -8.66844952 10.71940379 -4 5 C-3.195625 3.989375 -2.39125 2.97875 -1.5625 1.9375 C-1.046875 1.298125 -0.53125 0.65875 0 0 Z " fill="#5DD390" transform="translate(377,415)"/>
<path d="M0 0 C0.99101043 3.10563128 0.95875336 5.05235896 0.125 8.1875 C-0.87684811 12.21492941 -1.36900807 16.1137162 -1.65625 20.25 C-1.7696875 20.8275 -1.883125 21.405 -2 22 C-2.66 22.33 -3.32 22.66 -4 23 C-4 15.74 -4 8.48 -4 1 C-3.67 1.66 -3.34 2.32 -3 3 C-2.34 3 -1.68 3 -1 3 C-0.67 2.01 -0.34 1.02 0 0 Z " fill="#5BD995" transform="translate(546,491)"/>
<path d="M0 0 C0.66 0 1.32 0 2 0 C-1.80863659 8.33484239 -9.55592795 14.68743963 -16 21 C-16.66 20.34 -17.32 19.68 -18 19 C-15 16 -12 13 -9 10 C-8.44957031 9.40832031 -7.89914062 8.81664062 -7.33203125 8.20703125 C-6 7 -6 7 -4 7 C-4 6.01 -4 5.02 -4 4 C-3.34 4 -2.68 4 -2 4 C-1.34 2.68 -0.68 1.36 0 0 Z " fill="#64D795" transform="translate(410,359)"/>
<path d="M0 0 C0.66 0.33 1.32 0.66 2 1 C0.29657414 2.90044131 -1.41247117 4.79528874 -3.125 6.6875 C-3.599375 7.21794922 -4.07375 7.74839844 -4.5625 8.29492188 C-7.81499131 11.87705758 -11.22047225 14.97749932 -15 18 C-15 14 -15 14 -13.49609375 12.32421875 C-12.81675781 11.78410156 -12.13742187 11.24398438 -11.4375 10.6875 C-7.3743021 7.34133702 -3.66784269 3.77100077 0 0 Z M-18 19 C-17.34 19.33 -16.68 19.66 -16 20 C-16.99 20 -17.98 20 -19 20 C-18.67 19.67 -18.34 19.34 -18 19 Z " fill="#4EA876" transform="translate(656,449)"/>
<path d="M0 0 C0.66 1.32 1.32 2.64 2 4 C1.06862408 5.29608947 0.1296434 6.58671632 -0.8125 7.875 C-1.33457031 8.59429687 -1.85664063 9.31359375 -2.39453125 10.0546875 C-4 12 -4 12 -7 14 C-6.69723124 7.94462479 -3.72245962 4.48516542 0 0 Z " fill="#98F2A2" transform="translate(362,239)"/>
<path d="M0 0 C3.84411747 1.56612193 6.15950209 4.02094121 9 7 C9.928125 7.928125 10.85625 8.85625 11.8125 9.8125 C12.534375 10.534375 13.25625 11.25625 14 12 C13.34 12.66 12.68 13.32 12 14 C9.99387601 12.04761147 7.99507567 10.08862178 6 8.125 C5.42765625 7.56941406 4.8553125 7.01382812 4.265625 6.44140625 C2.80549218 4.99865596 1.39850702 3.5025626 0 2 C0 1.34 0 0.68 0 0 Z " fill="#68CF8F" transform="translate(636,406)"/>
<path d="M0 0 C1 3 1 3 0.41088867 4.79345703 C-0.08060669 5.76581299 -0.08060669 5.76581299 -0.58203125 6.7578125 C-0.93716797 7.46550781 -1.29230469 8.17320312 -1.65820312 8.90234375 C-2.03912109 9.63582031 -2.42003906 10.36929687 -2.8125 11.125 C-3.36647461 12.23681641 -3.36647461 12.23681641 -3.93164062 13.37109375 C-6.72840665 18.86420333 -6.72840665 18.86420333 -9 20 C-6.86233829 12.755702 -3.77315981 6.53281715 0 0 Z " fill="#4AC98E" transform="translate(746,472)"/>
<path d="M0 0 C-2.97 2.64 -5.94 5.28 -9 8 C-9.33 6.68 -9.66 5.36 -10 4 C-4.5 -1.125 -4.5 -1.125 0 0 Z " fill="#61D091" transform="translate(393,381)"/>
<path d="M0 0 C1 2 1 2 0.07421875 4.78515625 C-0.38339844 5.86667969 -0.84101563 6.94820313 -1.3125 8.0625 C-1.76238281 9.14660156 -2.21226562 10.23070312 -2.67578125 11.34765625 C-4 14 -4 14 -6 15 C-5.32323265 9.4505077 -4.05338899 4.05338899 0 0 Z " fill="#68D694" transform="translate(418,344)"/>
<path d="M0 0 C0.66 0.33 1.32 0.66 2 1 C1.1875 3.4375 1.1875 3.4375 0 6 C-0.99 6.33 -1.98 6.66 -3 7 C-3 8.32 -3 9.64 -3 11 C-3.66 11 -4.32 11 -5 11 C-4.46884894 6.48521602 -2.63379708 3.65333143 0 0 Z " fill="#91E99E" transform="translate(485,275)"/>
<path d="M0 0 C1 3 1 3 -0.14453125 5.4453125 C-0.69496094 6.32960938 -1.24539063 7.21390625 -1.8125 8.125 C-2.35519531 9.01445312 -2.89789062 9.90390625 -3.45703125 10.8203125 C-5 13 -5 13 -7 14 C-6.49145873 9.55026389 -4.85582283 7.37506334 -2 4 C-1.29114106 2.68861096 -0.60543548 1.36222983 0 0 Z " fill="#88E3A1" transform="translate(568,280)"/>
<path d="M0 0 C0 0.66 0 1.32 0 2 C-0.94875 2.45375 -1.8975 2.9075 -2.875 3.375 C-6.00313679 4.80238254 -6.00313679 4.80238254 -8 7 C-8.99 6.67 -9.98 6.34 -11 6 C-7.57204767 1.22535211 -7.57204767 1.22535211 -4.9375 0.1875 C-3 0 -3 0 0 0 Z " fill="#ABEFA5" transform="translate(525,227)"/>
<path d="M0 0 C0.66 0.33 1.32 0.66 2 1 C0.02 4.96 -1.96 8.92 -4 13 C-4.33 13 -4.66 13 -5 13 C-5 11.02 -5 9.04 -5 7 C-4.34 7 -3.68 7 -3 7 C-2.67 5.35 -2.34 3.7 -2 2 C-1.34 2 -0.68 2 0 2 C0 1.34 0 0.68 0 0 Z " fill="#5BCF91" transform="translate(356,415)"/>
<path d="M0 0 C0.33 0.99 0.66 1.98 1 3 C-0.75 6.1875 -0.75 6.1875 -3 9 C-3.99 9 -4.98 9 -6 9 C-4.02 6.03 -2.04 3.06 0 0 Z " fill="#348B6B" transform="translate(654,576)"/>
<path d="M0 0 C0.65234375 1.796875 0.65234375 1.796875 1 4 C-0.36489377 6.33370072 -2.1419038 8.00594554 -4 10 C-4.33 9.34 -4.66 8.68 -5 8 C-4.00390625 6.0546875 -4.00390625 6.0546875 -2.5625 3.875 C-2.08941406 3.15054688 -1.61632812 2.42609375 -1.12890625 1.6796875 C-0.75636719 1.12539062 -0.38382812 0.57109375 0 0 Z " fill="#A3EBA4" transform="translate(506,239)"/>
<path d="M0 0 C1 3 1 3 0.00390625 5.04296875 C-0.47175781 5.75066406 -0.94742188 6.45835937 -1.4375 7.1875 C-1.91058594 7.90292969 -2.38367188 8.61835938 -2.87109375 9.35546875 C-3.24363281 9.89816406 -3.61617187 10.44085938 -4 11 C-4.33 10.34 -4.66 9.68 -5 9 C-3.56224304 5.78216298 -1.95582488 2.93373731 0 0 Z " fill="#7FE19E" transform="translate(559,295)"/>
<path d="M0 0 C0.66 0 1.32 0 2 0 C1.7452486 1.31571603 1.47065859 2.62760376 1.1875 3.9375 C1.03667969 4.66839844 0.88585937 5.39929688 0.73046875 6.15234375 C0.48941406 6.76207031 0.24835937 7.37179687 0 8 C-0.99 8.33 -1.98 8.66 -3 9 C-2.44271087 5.65626525 -1.64826111 2.96687001 0 0 Z " fill="#A0EAA1" transform="translate(603,254)"/>
<path d="M0 0 C-0.33 0.99 -0.66 1.98 -1 3 C-1.556875 2.814375 -2.11375 2.62875 -2.6875 2.4375 C-5.399133 1.92448835 -7.34371039 2.3359276 -10 3 C-9 1 -9 1 -5.5625 -0.1875 C-2 -1 -2 -1 0 0 Z " fill="#87CF91" transform="translate(382,228)"/>
<path d="M0 0 C0.66 0.33 1.32 0.66 2 1 C0.19587357 4.26460973 -0.83394693 5.88929795 -4 8 C-2.25 2.25 -2.25 2.25 0 0 Z " fill="#91E99D" transform="translate(583,289)"/>
<path d="M0 0 C1.32 1.32 2.64 2.64 4 4 C1.66682784 4.77772405 -0.61435923 5.42415568 -3 6 C-2.01 4.02 -1.02 2.04 0 0 Z " fill="#A2DE9E" transform="translate(617,231)"/>
<path d="M0 0 C0.66 0.33 1.32 0.66 2 1 C1.25 3.4375 1.25 3.4375 0 6 C-2.125 6.8125 -2.125 6.8125 -4 7 C-2.68 4.69 -1.36 2.38 0 0 Z " fill="#68D68F" transform="translate(703,392)"/>
<path d="M0 0 C0.33 0 0.66 0 1 0 C1.25 2.25 1.25 2.25 1 5 C-1 7.3125 -1 7.3125 -3 9 C-2.5020163 5.26512223 -2.12508244 3.18762365 0 0 Z " fill="#92E29F" transform="translate(358,244)"/>
</svg>
